<?xml version="1.0" encoding="UTF-8"?>
<svg id="Layer_1" data-name="Layer 1" xmlns="http://www.w3.org/2000/svg" viewBox="0 0 1455.02 318.4">
  <defs>
    <style>
      .cls-1 {
        fill: #16171d;
        stroke-width: 0px;
      }
    </style>
  </defs>
  <g>
    <path class="cls-1" d="m148.86,46.24h35.38v175.14h-35.38v-22.42c-15.18,17.51-35.26,26.27-60.25,26.27-15.41,0-29.95-3.97-43.61-11.91-13.66-7.94-24.58-18.85-32.75-32.75-8.18-13.89-12.26-29.48-12.26-46.76s4.08-32.86,12.26-46.76c8.17-13.89,19.09-24.81,32.75-32.75,13.66-7.94,28.2-11.91,43.61-11.91,24.98,0,45.06,8.76,60.25,26.27v-22.42Zm-26.97,137.48c8.64-5.02,15.41-11.91,20.32-20.67,4.9-8.76,7.36-18.5,7.36-29.25s-2.45-20.49-7.36-29.25c-4.9-8.76-11.68-15.64-20.32-20.67-8.64-5.02-18.21-7.53-28.72-7.53s-20.09,2.51-28.72,7.53c-8.64,5.02-15.41,11.91-20.32,20.67-4.9,8.76-7.36,18.51-7.36,29.25s2.45,20.49,7.36,29.25c4.9,8.76,11.67,15.65,20.32,20.67,8.64,5.02,18.21,7.53,28.72,7.53s20.08-2.51,28.72-7.53Z"/>
    <path class="cls-1" d="m340.64,52.37c10.86,6.65,19.32,15.76,25.39,27.32,6.07,11.56,9.11,24.46,9.11,38.7v102.98h-36.43v-98.43c0-14.01-3.8-25.27-11.38-33.8-7.59-8.52-17.92-12.79-31-12.79s-23.59,4.32-32.22,12.96c-8.64,8.64-12.96,19.85-12.96,33.63v98.43h-36.43V46.24h35.38v20.67c7.01-7.94,15.06-14.01,24.17-18.21,9.11-4.2,18.91-6.31,29.42-6.31,13.78,0,26.1,3.33,36.95,9.98Z"/>
    <path class="cls-1" d="m401.32,0h36.43v46.24h43.08v33.63h-43.08v79.86c0,8.64,2.45,15.41,7.36,20.32,4.9,4.9,11.67,7.36,20.32,7.36h15.41v33.98h-22.07c-17.51,0-31.47-5.13-41.86-15.41-10.39-10.27-15.59-23.93-15.59-40.98V0Z"/>
    <path class="cls-1" d="m638.91,46.24h35.38v175.14h-35.38v-22.42c-15.18,17.51-35.26,26.27-60.25,26.27-15.41,0-29.95-3.97-43.61-11.91-13.66-7.94-24.58-18.85-32.75-32.75-8.18-13.89-12.26-29.48-12.26-46.76s4.08-32.86,12.26-46.76c8.17-13.89,19.09-24.81,32.75-32.75,13.66-7.94,28.2-11.91,43.61-11.91,24.98,0,45.06,8.76,60.25,26.27v-22.42Zm-26.97,137.48c8.64-5.02,15.41-11.91,20.32-20.67,4.9-8.76,7.36-18.5,7.36-29.25s-2.45-20.49-7.36-29.25c-4.9-8.76-11.68-15.64-20.32-20.67-8.64-5.02-18.21-7.53-28.72-7.53s-20.09,2.51-28.72,7.53c-8.64,5.02-15.41,11.91-20.32,20.67-4.9,8.76-7.36,18.51-7.36,29.25s2.45,20.49,7.36,29.25c4.9,8.76,11.67,15.65,20.32,20.67,8.64,5.02,18.21,7.53,28.72,7.53s20.08-2.51,28.72-7.53Z"/>
    <path class="cls-1" d="m948.49,213.49c-14.25-7.82-25.63-18.68-34.15-32.58-8.53-13.89-12.78-29.6-12.78-47.11s4.26-33.22,12.78-47.11c8.52-13.89,19.91-24.75,34.15-32.58,14.24-7.82,29.65-11.73,46.24-11.73s31.99,3.91,46.24,11.73c14.24,7.83,25.62,18.68,34.15,32.58,8.52,13.9,12.78,29.6,12.78,47.11s-4.26,33.22-12.78,47.11c-8.53,13.9-19.91,24.75-34.15,32.58-14.25,7.83-29.66,11.73-46.24,11.73s-31.99-3.91-46.24-11.73Zm74.61-29.77c8.64-5.02,15.41-11.91,20.32-20.67,4.9-8.76,7.36-18.5,7.36-29.25s-2.45-20.49-7.36-29.25c-4.9-8.76-11.68-15.64-20.32-20.67-8.64-5.02-18.1-7.53-28.37-7.53s-20.09,2.51-28.72,7.53c-8.64,5.02-15.41,11.91-20.32,20.67-4.9,8.76-7.36,18.51-7.36,29.25s2.45,20.49,7.36,29.25c4.9,8.76,11.67,15.65,20.32,20.67,8.64,5.02,18.21,7.53,28.72,7.53s19.73-2.51,28.37-7.53Z"/>
    <path class="cls-1" d="m1232.87,52.37c10.86,6.65,19.32,15.76,25.39,27.32,6.07,11.56,9.11,24.46,9.11,38.7v102.98h-36.43v-98.43c0-14.01-3.8-25.27-11.38-33.8-7.59-8.52-17.92-12.79-31-12.79s-23.59,4.32-32.22,12.96c-8.64,8.64-12.96,19.85-12.96,33.63v98.43h-36.43V46.24h35.38v20.67c7.01-7.94,15.06-14.01,24.17-18.21,9.11-4.2,18.91-6.31,29.42-6.31,13.78,0,26.1,3.33,36.95,9.98Z"/>
    <g>
      <path class="cls-1" d="m741.36,213.49c-14.25-7.82-25.63-18.68-34.15-32.58-8.53-13.89-12.78-29.6-12.78-47.11s4.26-33.22,12.78-47.11c8.52-13.89,19.91-24.75,34.15-32.58,14.24-7.82,29.65-11.73,46.24-11.73s31.99,3.91,46.24,11.73c14.24,7.83,25.62,18.68,34.15,32.58,8.52,13.9,12.78,29.6,12.78,47.11s-4.26,33.22-12.78,47.11c-8.53,13.9-19.91,24.75-34.15,32.58-14.25,7.83-29.66,11.73-46.24,11.73s-31.99-3.91-46.24-11.73Zm74.61-29.77c8.64-5.02,15.41-11.91,20.32-20.67,4.9-8.76,7.36-18.5,7.36-29.25s-2.45-20.49-7.36-29.25c-4.9-8.76-11.68-15.64-20.32-20.67-8.64-5.02-18.1-7.53-28.37-7.53s-20.09,2.51-28.72,7.53c-8.64,5.02-15.41,11.91-20.32,20.67-4.9,8.76-7.36,18.51-7.36,29.25s2.45,20.49,7.36,29.25c4.9,8.76,11.67,15.65,20.32,20.67,8.64,5.02,18.21,7.53,28.72,7.53s19.73-2.51,28.37-7.53Z"/>
      <path class="cls-1" d="m787.59,281.27c30.95,0,56.04-25.09,56.04-56.04h37.13c0,51.46-41.71,93.17-93.17,93.17v-37.13Z"/>
      <rect class="cls-1" x="849.79" y="46.24" width="43.08" height="33.63"/>
    </g>
    <path class="cls-1" d="m1329.98,27.16h-36.43V0h36.43v27.16Zm1.08,194.21h-36.43V46.24h36.43v175.14Z"/>
  </g>
  <polygon class="cls-1" points="1381.24 128.78 1445.98 46.24 1404.66 46.24 1340.38 130.44 1411.67 221.37 1455.02 221.37 1381.24 128.78"/>
</svg>