<?xml version="1.0" encoding="UTF-8"?>
<svg id="Layer_1" data-name="Layer 1" xmlns="http://www.w3.org/2000/svg" viewBox="0 0 111.12 20.71">
  <defs>
    <style>
      .cls-1 {
        fill: #eceff4;
      }

      .cls-1, .cls-2 {
        stroke-width: 0px;
      }

      .cls-2 {
        fill: #ff5741;
      }
    </style>
  </defs>
  <g>
    <g>
      <path class="cls-1" d="m33.33,4.39h2.1v10.37h-2.1v-1.33c-.9,1.04-2.09,1.56-3.57,1.56-.91,0-1.77-.24-2.58-.7-.81-.47-1.46-1.11-1.94-1.94-.49-.82-.73-1.74-.73-2.77s.24-1.95.73-2.77,1.13-1.47,1.94-1.94c.81-.47,1.67-.7,2.58-.7,1.48,0,2.67.52,3.57,1.56,0,0,0-1.33,0-1.33Zm-1.6,8.14c.51-.3.91-.7,1.2-1.23.29-.52.44-1.1.44-1.73s-.14-1.21-.44-1.73-.69-.93-1.2-1.23c-.51-.3-1.08-.45-1.7-.45s-1.19.15-1.7.45c-.51.3-.91.7-1.2,1.23-.29.52-.44,1.1-.44,1.73s.14,1.21.44,1.73.69.93,1.2,1.23,1.08.45,1.7.45,1.19-.15,1.7-.45Z"/>
      <path class="cls-1" d="m44.68,4.75c.64.39,1.15.93,1.51,1.62.36.68.54,1.45.54,2.29v6.1h-2.16v-5.83c0-.83-.22-1.49-.67-2-.45-.5-1.06-.76-1.84-.76s-1.39.26-1.91.77-.77,1.18-.77,1.99v5.83h-2.15V4.39h2.1v1.23c.42-.47.89-.83,1.43-1.08s1.12-.37,1.74-.37c.82,0,1.54.2,2.18.59h0Z"/>
      <path class="cls-1" d="m48.27,1.65h2.15v2.74h2.55v1.99h-2.55v4.73c0,.51.14.91.44,1.2s.69.44,1.2.44h.91v2.01h-1.31c-1.04,0-1.86-.3-2.48-.91-.62-.61-.92-1.42-.92-2.43,0,0,0-9.77,0-9.77Z"/>
      <path class="cls-1" d="m62.34,4.39h2.1v10.37h-2.1v-1.33c-.9,1.04-2.09,1.56-3.57,1.56-.91,0-1.77-.24-2.58-.7s-1.46-1.11-1.94-1.94c-.49-.82-.73-1.74-.73-2.77s.24-1.95.73-2.77,1.13-1.47,1.94-1.94c.81-.47,1.67-.7,2.58-.7,1.48,0,2.67.52,3.57,1.56,0,0,0-1.33,0-1.33Zm-1.6,8.14c.51-.3.91-.7,1.2-1.23.29-.52.44-1.1.44-1.73s-.14-1.21-.44-1.73c-.29-.52-.69-.93-1.2-1.23-.51-.3-1.08-.45-1.7-.45s-1.19.15-1.7.45c-.51.3-.91.7-1.2,1.23-.29.52-.44,1.1-.44,1.73s.14,1.21.44,1.73c.29.52.69.93,1.2,1.23s1.08.45,1.7.45,1.19-.15,1.7-.45Z"/>
      <path class="cls-1" d="m80.67,14.28c-.85-.46-1.52-1.11-2.02-1.93s-.76-1.76-.76-2.79.26-1.97.76-2.79,1.18-1.46,2.02-1.93c.84-.46,1.76-.7,2.74-.7s1.89.23,2.74.7c.84.46,1.52,1.11,2.02,1.93.5.82.76,1.76.76,2.79s-.26,1.97-.76,2.79-1.18,1.46-2.02,1.93c-.85.46-1.76.7-2.74.7s-1.89-.23-2.74-.7Zm4.42-1.76c.51-.3.91-.7,1.2-1.23.29-.52.44-1.1.44-1.73s-.14-1.21-.44-1.73-.69-.93-1.2-1.23c-.51-.3-1.07-.45-1.68-.45s-1.19.15-1.7.45c-.51.3-.91.7-1.2,1.23-.29.52-.44,1.1-.44,1.73s.14,1.21.44,1.73.69.93,1.2,1.23c.51.3,1.08.45,1.7.45s1.17-.15,1.68-.45Z"/>
      <path class="cls-1" d="m97.51,4.75c.64.39,1.15.93,1.51,1.62.36.68.54,1.45.54,2.29v6.1h-2.16v-5.83c0-.83-.22-1.49-.67-2-.45-.5-1.06-.76-1.84-.76s-1.39.26-1.91.77-.77,1.18-.77,1.99v5.83h-2.15V4.39h2.1v1.23c.42-.47.89-.83,1.43-1.08.54-.25,1.12-.37,1.74-.37.82,0,1.54.2,2.18.59h0Z"/>
      <g>
        <path class="cls-1" d="m68.4,14.28c-.85-.46-1.52-1.11-2.02-1.93s-.76-1.76-.76-2.79.26-1.97.76-2.79,1.18-1.46,2.02-1.93c.84-.46,1.76-.7,2.74-.7s1.89.23,2.74.7c.84.46,1.52,1.11,2.02,1.93.5.82.76,1.76.76,2.79s-.26,1.97-.76,2.79-1.18,1.46-2.02,1.93c-.85.46-1.76.7-2.74.7s-1.89-.23-2.74-.7Zm4.42-1.76c.51-.3.91-.7,1.2-1.23.29-.52.44-1.1.44-1.73s-.14-1.21-.44-1.73c-.29-.52-.69-.93-1.2-1.23-.51-.3-1.07-.45-1.68-.45s-1.19.15-1.7.45c-.51.3-.91.7-1.2,1.23-.29.52-.44,1.1-.44,1.73s.14,1.21.44,1.73c.29.52.69.93,1.2,1.23s1.08.45,1.7.45,1.17-.15,1.68-.45Z"/>
        <path class="cls-1" d="m71.14,18.3c1.83,0,3.32-1.49,3.32-3.32h2.2c0,3.04-2.47,5.51-5.51,5.51v-2.2Z"/>
        <rect class="cls-1" x="74.83" y="4.39" width="2.55" height="1.99"/>
      </g>
      <path class="cls-1" d="m103.25,3.26h-2.15v-1.61h2.15v1.61Zm.06,11.5h-2.15V4.39h2.15v10.37h0Z"/>
    </g>
    <polygon class="cls-1" points="106.29 9.27 110.13 4.39 107.68 4.39 103.87 9.37 108.09 14.75 110.66 14.75 106.29 9.27"/>
  </g>
  <g>
    <path class="cls-2" d="m17.62,3.77h-7.6c3.21,0,5.81,2.6,5.81,5.81s-2.6,5.81-5.81,5.81l-3.76,3.76h3.76c5.28,0,9.57-4.28,9.57-9.57,0-2.18-.73-4.2-1.96-5.81h0Z"/>
    <path class="cls-2" d="m4.22,9.57c0-3.21,2.6-5.81,5.81-5.81l3.76-3.76h-3.76C4.74,0,.46,4.28.46,9.57c0,2.18.73,4.2,1.96,5.81h7.6c-3.21,0-5.81-2.6-5.81-5.81h0Z"/>
  </g>
</svg>