<?xml version="1.0" encoding="UTF-8"?>
<svg id="Layer_1" data-name="Layer 1" xmlns="http://www.w3.org/2000/svg" viewBox="0 0 140.87 140.87">
  <defs>
    <style>
      .cls-1 {
        stroke-width: 0px;
      }
    </style>
  </defs>
  <path class="cls-1" d="m105.61,55.41h-10.93c-.5,0-.72.22-.72.77v42.52c0,.55.28.88.83.88h10.82c.5,0,.72-.28.72-.88v-42.52c0-.5-.22-.77-.72-.77Z"/>
  <path class="cls-1" d="m100.14,50.78h0c1.88.11,3.75-.61,5.02-1.93,1.33-1.38,1.99-3.2,1.93-5.08.06-1.82-.61-3.59-1.82-4.91-1.21-1.27-2.87-1.93-5.03-1.93-1.82,0-3.59.66-4.91,1.93-1.33,1.27-2.04,3.04-1.99,4.91-.06,1.88.61,3.7,1.88,5.08,1.33,1.27,3.09,1.99,4.91,1.93Z"/>
  <path class="cls-1" d="m67.95,41.78c-.06-.28-.28-.44-.72-.44h-14.3c-.28.06-.5.33-.44.61,0,1.21-.11,2.43-.33,3.59-.22.66-.39,1.27-.55,1.82l-17.78,51.19c-.17.66,0,.99.61.99h10.38c.5.06.94-.28,1.05-.77l4.2-12.98h20.54l4.53,13.14c.11.39.5.66.88.61h11.54c.55,0,.72-.28.55-.88l-20.16-56.88Zm-14.69,32.8c.83-2.32,1.66-4.91,2.43-7.73.88-2.76,1.71-5.52,2.54-8.17.77-2.37,1.38-4.75,1.88-7.12h.11c.39,1.33.77,2.76,1.21,4.31.44,1.6.94,3.2,1.49,4.91.55,1.71,1.05,3.37,1.6,5.08.5,1.66.99,3.26,1.49,4.75.5,1.44.94,2.82,1.27,3.98h-14.03Z"/>
</svg>