<?xml version="1.0" encoding="UTF-8"?>
<svg id="Layer_1" data-name="Layer 1" xmlns="http://www.w3.org/2000/svg" viewBox="0 0 140.87 140.87">
  <defs>
    <style>
      .cls-1 {
        fill-rule: evenodd;
        stroke-width: 0px;
      }
    </style>
  </defs>
  <path class="cls-1" d="m102.74,62.25c-1.62.58-2.59,2.12-3.43,3.52-1.82,3.21-2.27,7.34-.62,10.71.44.93,1.23,1.87,2.34,1.92,1.21.04,2.25-.72,3.09-1.52,1.83-1.8,2.67-4.38,2.96-6.88.3-2.34-.09-4.86-1.45-6.83-.62-.92-1.85-1.31-2.9-.93Z"/>
  <path class="cls-1" d="m78,62.24c-1.48.49-2.42,1.85-3.21,3.11-1.99,3.21-2.57,7.45-.97,10.94.42.92,1.1,1.89,2.17,2.08,1.14.19,2.19-.46,3.02-1.17,1.82-1.56,2.73-3.91,3.17-6.22.49-2.63.24-5.53-1.3-7.78-.62-.92-1.83-1.33-2.88-.96Z"/>
  <path class="cls-1" d="m118.78,55.11c.05-2.57-1.04-5.14-2.96-6.86-1.68-1.54-3.95-2.38-6.23-2.33-26.21,0-52.43,0-78.64,0-3.48,0-6.81,2.26-8.14,5.47-.61,1.37-.75,2.88-.71,4.35.02,9.84-.02,19.68.02,29.52.03,4.53,3.98,8.58,8.51,8.71,12.58.07,25.16-.05,37.74.06,5.73,3.07,11.36,6.32,17.06,9.45-1.28-3.17-2.58-6.33-3.87-9.49,9.56-.02,19.12.02,28.68-.02,4.54-.12,8.5-4.18,8.52-8.72.03-10.05,0-20.09.01-30.14Zm-57.1,30.76c.08,1.47-.63,3.25-2.2,3.59-1.49.33-2.85-.64-3.78-1.7-4.28-4.6-6.7-10.57-8.45-16.52-1.77,3.48-3.54,6.97-5.25,10.48-1.2,2.38-2.46,4.8-4.38,6.68-.81.8-2.18,1.53-3.22.7-1.57-1.37-1.96-3.56-2.62-5.44-2.53-8.72-3.96-17.7-5.43-26.64-.34-1.49.29-3.28,1.78-3.87,1.2-.45,2.74-.51,3.76.37.71.64.91,1.62,1.04,2.52,1.03,6.92,2.26,13.82,3.93,20.62,2.86-5.43,5.71-10.87,8.56-16.3.42-.8.93-1.59,1.71-2.09,1.04-.67,2.59-.62,3.46.31.73.77.98,1.84,1.18,2.84.85,4.49,2.01,8.94,3.68,13.2.72-6.42,1.61-12.92,3.95-18.98.53-1.22,1-2.51,1.85-3.55,1.45-1.54,4.21-1.04,5.28.7.58.92.63,2.14.16,3.12-2.02,3.97-2.86,8.4-3.64,12.75-.92,5.67-1.68,11.42-1.39,17.18Zm24.83-7.59c-1.18,2.2-2.73,4.31-4.91,5.6-3.2,1.94-7.48,1.7-10.57-.35-2.47-1.69-3.85-4.57-4.42-7.44-1.14-6.49.81-13.73,5.72-18.27,1.41-1.22,3.17-2.04,5.03-2.27,3.08-.38,6.41.65,8.51,2.99,1.71,1.94,2.67,4.45,3,7,.52,4.35-.26,8.87-2.35,12.73Zm24.84-.12c-1.2,2.26-2.78,4.44-5.03,5.75-3.07,1.84-7.12,1.67-10.16-.14-2.05-1.24-3.42-3.35-4.21-5.57-2.16-6.79-.34-14.78,4.63-19.9,1.49-1.45,3.42-2.47,5.5-2.73,3.01-.37,6.28.55,8.39,2.8,1.89,2.04,2.91,4.76,3.2,7.5.44,4.2-.33,8.55-2.32,12.29Z"/>
</svg>