<?xml version="1.0" encoding="UTF-8"?>
<svg id="Layer_1" data-name="Layer 1" xmlns="http://www.w3.org/2000/svg" viewBox="0 0 140.87 140.87">
  <defs>
    <style>
      .cls-1 {
        stroke-width: 0px;
      }
    </style>
  </defs>
  <path class="cls-1" d="m55.98,41.06c-.06-.28-.33-.45-.72-.45h-14.43c-.28.06-.5.33-.45.61,0,1.23-.11,2.45-.33,3.62-.22.67-.39,1.17-.56,1.73l-17.94,51.44c-.17.67,0,1,.61,1h10.48c.5.06.95-.28,1.06-.78l4.24-13.15h20.73,0v-.28l4.57,13.37c.11.39.5.67.89.61h11.65c.56,0,.72-.28.56-.89l-20.34-56.84Zm-14.82,32.94c.84-2.34,1.73-4.96,2.45-7.8.89-2.79,1.73-5.57,2.56-8.25.78-2.4,1.39-4.79,1.89-7.19h.11c.39,1.34.78,2.79,1.23,4.35.45,1.62.95,3.23,1.5,4.96.56,1.73,1.06,3.4,1.62,5.13.5,1.67,1,3.29,1.5,4.79.5,1.45.95,2.84,1.28,4.01h-14.15Z"/>
  <path class="cls-1" d="m118.33,66.58c-.72-2.34-1.89-4.46-3.34-6.35-1.56-1.95-3.57-3.45-5.85-4.46-2.73-1.23-5.68-1.78-8.64-1.73-3.57,0-6.69.45-9.31,1.73-2.62,1.28-4.9,3.06-6.74,5.29-1.89,2.28-3.29,4.85-4.18,7.63-.95,2.9-1.39,5.85-1.39,8.86,0,2.79.39,5.52,1.17,8.14.78,2.67,2.06,5.13,3.84,7.3,1.89,2.28,4.29,4.12,7.02,5.29,2.9,1.28,6.46,1.95,10.7,1.95,2.67.06,5.29-.17,7.91-.67,1.95-.33,3.79-.89,5.57-1.67.17-.11.28-.22.39-.39.06-.22.11-.45.11-.67v-8.53c0-.56-.17-.67-.45-.45-1.56.61-3.23,1.06-4.96,1.28-1.89.39-3.84.56-5.8.61-2.45.06-4.9-.45-7.13-1.39-1.67-.67-3.06-1.84-4.07-3.34-.95-1.5-1.5-3.23-1.73-4.96h17.67,0c1.45,0,2.79.22,4.07.22s2.34-.06,3.23-.17c.89-.06,1.5-.11,1.84-.11.39,0,.72-.33.78-.72.06-.5.11-1.28.22-2.34.06-1.06.11-2.23.11-3.57,0-2.28-.33-4.57-1.06-6.8Zm-10.64,4.85c-.39.28-.84.39-1.28.45-.67.06-1.73.06-3.18.06h-11.76c.17-1.39.56-2.73,1.23-4.01,1.45-2.79,4.35-4.4,7.41-4.24,3.29-.11,6.24,2.01,7.24,5.13.22.67.33,1.34.33,2.06v.56Z"/>
</svg>