<?xml version="1.0" encoding="UTF-8"?>
<svg id="Layer_1" data-name="Layer 1" xmlns="http://www.w3.org/2000/svg" viewBox="0 0 140.87 140.87">
  <defs>
    <style>
      .cls-1 {
        stroke-width: 0px;
      }
    </style>
  </defs>
  <path class="cls-1" d="m70.43,19.32c-28.23,0-51.11,22.88-51.11,51.11s22.88,51.11,51.11,51.11,51.11-22.88,51.11-51.11-22.88-51.11-51.11-51.11Zm39.84,77.97c-1.72,2.54-3.69,4.94-5.87,7.11-2.17,2.17-4.57,4.15-7.11,5.87-2.57,1.74-5.31,3.23-8.16,4.43-5.92,2.5-12.21,3.77-18.7,3.77s-12.78-1.27-18.7-3.77c-2.85-1.2-5.59-2.69-8.16-4.43-2.54-1.72-4.94-3.69-7.11-5.87s-4.15-4.57-5.87-7.11c-1.74-2.57-3.23-5.31-4.43-8.16-2.5-5.92-3.77-12.21-3.77-18.7s1.27-12.78,3.77-18.7c1.2-2.85,2.69-5.59,4.43-8.16,1.72-2.54,3.69-4.94,5.87-7.11,2.17-2.17,4.57-4.15,7.11-5.87,2.57-1.74,5.31-3.23,8.16-4.43,5.92-2.5,12.21-3.77,18.7-3.77s12.78,1.27,18.7,3.77c2.85,1.2,5.59,2.69,8.16,4.43,2.54,1.72,4.94,3.69,7.11,5.87s4.15,4.57,5.87,7.11c1.74,2.57,3.23,5.31,4.43,8.16,2.5,5.92,3.77,12.21,3.77,18.7s-1.27,12.78-3.77,18.7c-1.2,2.85-2.69,5.59-4.43,8.16Z"/>
  <path class="cls-1" d="m71.18,74.16l-12.78,37.13c3.82,1.12,7.85,1.74,12.03,1.74,4.96,0,9.72-.86,14.15-2.41-.11-.18-.22-.38-.31-.59l-13.09-35.87Z"/>
  <path class="cls-1" d="m27.84,70.43c0,16.86,9.8,31.43,24.01,38.33l-20.32-55.67c-2.36,5.3-3.69,11.16-3.69,17.33Z"/>
  <path class="cls-1" d="m99.19,68.28c0-5.27-1.89-8.91-3.51-11.75-2.16-3.51-4.18-6.48-4.18-9.99,0-3.91,2.97-7.56,7.15-7.56.19,0,.37.02.55.03-7.58-6.94-17.67-11.18-28.76-11.18-14.88,0-27.97,7.64-35.59,19.2,1,.03,1.94.05,2.74.05,4.45,0,11.35-.54,11.35-.54,2.29-.13,2.57,3.24.27,3.51,0,0-2.31.27-4.87.4l15.51,46.14,9.32-27.96-6.64-18.18c-2.29-.13-4.47-.4-4.47-.4-2.3-.14-2.03-3.64.27-3.51,0,0,7.03.54,11.22.54,4.45,0,11.35-.54,11.35-.54,2.3-.13,2.57,3.24.27,3.51,0,0-2.31.27-4.87.4l15.39,45.79,4.39-13.92c1.95-6.08,3.1-10.4,3.1-14.04Z"/>
  <path class="cls-1" d="m108.1,54.38c0,4.32-.81,9.18-3.24,15.26l-13.01,37.61c12.66-7.38,21.18-21.1,21.18-36.82,0-7.41-1.89-14.37-5.22-20.43.18,1.36.29,2.81.29,4.38Z"/>
</svg>