<?xml version="1.0" encoding="UTF-8"?>
<svg id="Layer_1" data-name="Layer 1" xmlns="http://www.w3.org/2000/svg" viewBox="0 0 140.87 140.87">
  <defs>
    <style>
      .cls-1 {
        stroke-width: 0px;
      }
    </style>
  </defs>
  <path class="cls-1" d="m28.16,22.21v1.16c0,.64,1.63,19.53,3.65,41.98,1.97,22.41,3.69,41.42,3.73,42.24l.13,1.46,17.38,4.81,17.34,4.81,3.48-.94c1.89-.52,9.66-2.66,17.3-4.76,11.85-3.26,13.86-3.95,14.04-4.68.21-1.03,7.51-83.74,7.51-85.11v-.94H28.16Zm68.98,19.4c-.17,1.03-1.29,13.22-2.49,27.17-1.24,13.91-2.27,25.41-2.36,25.5-.17.21-21.25,6.05-21.85,6.05-.43,0-11.93-3.13-19.79-5.37l-2.19-.64-.52-5.67c-.26-3.13-.6-6.91-.77-8.41l-.26-2.66h5.37c6.05,0,5.88-.09,5.92,3.65,0,.94.13,2.4.26,3.26l.26,1.55,5.88,1.55,5.84,1.55,5.79-1.55c3.18-.86,5.84-1.59,5.84-1.59.04-.04.3-2.58.56-5.62.26-3.09.56-6.09.69-6.78l.21-1.16h-36.83l-.21-.99c-.13-.52-.39-3-.56-5.58l-.3-4.59h38.67l.26-2.92c.17-1.59.43-4.03.56-5.41.17-1.76.13-2.45-.21-2.23-.26.13-9.4.13-20.39-.04l-19.96-.26-.26-3.05c-.17-1.67-.39-4.08-.52-5.32l-.26-2.23h53.82l-.21,1.8Z"/>
</svg>