<?xml version="1.0" encoding="UTF-8"?>
<svg id="Layer_1" data-name="Layer 1" xmlns="http://www.w3.org/2000/svg" viewBox="0 0 140.87 140.87">
  <defs>
    <style>
      .cls-1 {
        stroke-width: 0px;
      }
    </style>
  </defs>
  <path class="cls-1" d="m114.46,40.92c-13.22-7.48-26.46-14.94-39.68-22.41-2.63-1.51-6.06-1.51-8.69,0-13.18,7.44-26.36,14.89-39.54,22.33-2.56,1.38-4.29,4.2-4.27,7.12v44.97c-.02,2.98,1.8,5.83,4.43,7.19,3.79,2.06,7.46,4.33,11.32,6.26,4.45,2.24,10.02,2.73,14.53.4,3.66-1.94,5.28-6.24,5.28-10.19.03-14.84,0-29.68.01-44.52.09-.66-.4-1.36-1.1-1.35-1.68-.03-3.37-.02-5.05,0-.64-.06-1.26.48-1.21,1.13-.02,14.74,0,29.49-.01,44.24.04,2.04-1.31,4-3.23,4.69-2.18.81-4.6.18-6.58-.88-3.51-1.98-7.02-3.95-10.52-5.94-.48-.23-.76-.72-.71-1.25,0-14.84,0-29.67,0-44.51-.06-.6.3-1.14.83-1.38,13.14-7.4,26.26-14.82,39.4-22.22.47-.32,1.08-.32,1.55,0,13.14,7.4,26.27,14.81,39.4,22.21.54.24.88.79.83,1.39,0,14.83,0,29.67,0,44.5.04.53-.23,1.03-.71,1.26-12.93,7.31-25.89,14.6-38.83,21.91-.62.34-1.35.9-2.07.48-3.39-1.92-6.74-3.91-10.12-5.85-.37-.23-.84-.34-1.22-.07-1.52.82-3.03,1.66-4.68,2.18-.73.3-1.63.38-2.14,1.06.57.78,1.48,1.17,2.29,1.65,3.95,2.29,7.91,4.57,11.86,6.86,2.6,1.66,6.1,1.78,8.78.24,13.18-7.43,26.36-14.87,39.54-22.31,2.62-1.37,4.45-4.2,4.43-7.19v-44.97c.03-2.87-1.64-5.63-4.13-7.04Z"/>
  <path class="cls-1" d="m83.58,85.73c-3.91-.06-8.19.09-11.61-2.11-1.77-1.2-2.53-3.33-2.84-5.36-.03-.63-.53-1.21-1.2-1.16-1.68-.02-3.36-.02-5.04,0-.59-.05-1.2.38-1.23.99-.13,3.62,1.22,7.38,4,9.79,3.25,2.86,7.62,3.97,11.82,4.45,4.47.44,9.04.41,13.44-.57,3.31-.77,6.63-2.19,8.9-4.8,2.81-3.17,3.36-7.89,2.1-11.84-.96-2.95-3.72-4.84-6.53-5.81-6.8-2.38-14.14-2.2-21.07-4.02-1.2-.38-2.67-.79-3.21-2.06-.57-1.77-.08-3.98,1.51-5.07,2.07-1.44,4.71-1.65,7.16-1.78,3.35-.03,6.92-.11,10,1.43,2,1.03,3.17,3.14,3.64,5.26.09.63.5,1.28,1.21,1.25,1.67.03,3.34,0,5,.01.57.04,1.2-.29,1.31-.89-.07-4.45-2.29-9-6.3-11.18-5.17-2.83-11.33-2.98-17.08-2.61h0c-4.15.42-8.52,1.59-11.55,4.64-3.1,3.06-3.78,8.01-2.3,12.01,1.06,2.82,3.72,4.66,6.47,5.63,6.77,2.45,14.2,1.66,21.04,3.83,1.33.45,2.88,1.14,3.29,2.63.38,1.76-.04,3.8-1.43,5.02-2.64,2.14-6.28,2.18-9.52,2.33Z"/>
</svg>