<?xml version="1.0" encoding="UTF-8"?>
<svg id="Layer_1" data-name="Layer 1" xmlns="http://www.w3.org/2000/svg" viewBox="0 0 140.87 140.87">
  <defs>
    <style>
      .cls-1 {
        fill-rule: evenodd;
        stroke-width: 0px;
      }
    </style>
  </defs>
  <path class="cls-1" d="m97.11,54.48c5.21-3.39,8.65-9.27,8.65-15.95,0-10.51-8.52-19.03-19.03-19.03h-32.6c-10.51,0-19.03,8.52-19.03,19.03,0,6.68,3.44,12.56,8.65,15.95-5.21,3.39-8.65,9.27-8.65,15.95s3.44,12.56,8.65,15.95c-5.21,3.39-8.65,9.27-8.65,15.95,0,10.53,8.63,19.03,19.11,19.03s19.29-8.57,19.29-19.2v-17.73c3.39,3.12,7.91,5.02,12.88,5.02h.35c10.51,0,19.03-8.52,19.03-19.03,0-6.68-3.44-12.56-8.65-15.95Zm-29.75,47.68c0,7.19-5.91,13.05-13.14,13.05s-12.96-5.79-12.96-12.88,5.74-12.85,12.83-12.88h13.27v12.7Zm0-18.85h-13.27c-7.09-.02-12.83-5.78-12.83-12.88s5.77-12.88,12.88-12.88h13.22v25.76Zm0-31.9h-13.22c-7.11,0-12.88-5.77-12.88-12.88s5.77-12.88,12.88-12.88h13.22v25.76Zm6.15-25.76h13.22c7.11,0,12.88,5.77,12.88,12.88s-5.77,12.88-12.88,12.88h-13.22v-25.76Zm13.22,57.66h-.35c-7.11,0-12.88-5.77-12.88-12.88s5.77-12.88,12.88-12.88h.35c7.11,0,12.88,5.77,12.88,12.88s-5.77,12.88-12.88,12.88Z"/>
</svg>