<?xml version="1.0" encoding="UTF-8"?>
<svg id="Layer_1" data-name="Layer 1" xmlns="http://www.w3.org/2000/svg" viewBox="0 0 140.87 140.87">
  <defs>
    <style>
      .cls-1 {
        fill-rule: evenodd;
        stroke-width: 0px;
      }
    </style>
  </defs>
  <path class="cls-1" d="m110.27,100.39c-1.07-2.11-2.34-4.22-3.85-6.3-1.71-2.34-3.53-4.48-5.41-6.39-1.82-1.82-3.76-3.44-5.76-4.86-4.19-2.92-9.4-5.38-15.62-7.37-2.29-.72-4.51-1.1-6.71-1.16l-3.07.12.06-.38,4.45-5.32c.09-.09.17-.2.26-.29,1.88-2.17,3.62-3.88,5.15-5.06,3.44,1.88,6.68,2.4,9.66,1.5,2.37-.69,4.89-2.4,7.55-5.12,2.57-2.57,3.61-4.57,3.15-5.99-.78-2.34-2.66-3.47-5.64-3.44-1.36.03-3.15.69-5.32,1.94-1.71.98-2.95,1.85-3.67,2.57-6.57-2.95-11.25-4.69-14.09-5.18-10.7-1.91-19.96,1.5-27.74,10.21-4.19,4.77-6.1,7.55-5.7,8.36l.32.2h2.17c.58-.14,1.27-.38,2.11-.64,4.57-1.62,6.8-2.78,6.65-3.47l.14-2.49c.14-2.02,1.5-3.88,4.02-5.55,4.19-2.83,8.27-3.35,12.26-1.56,1.27.58,3.04,1.65,5.29,3.18,2.63,1.82,4.57,3.07,5.75,3.73.12.14.09.26-.12.35-2.34,1.94-4.57,4.11-6.74,6.45-1.01,1.07-2.02,2.2-2.98,3.38l-2.4,3.33c-2.55.55-5.81,1.68-9.78,3.38-6.04,2.86-10.85,5.64-14.4,8.27-.38.29-.78.58-1.16.9-4.48,3.59-7.75,7.55-9.75,11.89l-.52,1.62c-.12.61,0,1.04.38,1.3,2.92,1.24,7.23.43,12.99-2.37,4.22-2.08,8.53-5.09,12.96-9.05,1.1-1.04,2.23-2.17,3.38-3.38,1.36-1.47,2.78-3.07,4.25-4.77l5.58-.29c4.6.12,9.43.67,14.49,1.62,4.89.93,8.59,2.08,11.16,3.44,1.1.61,2,1.24,2.66,1.91,1.36,1.36,1.85,2.72,1.48,4.08l-.55,1.48c-.17.52-.2.93-.12,1.24.46,1.33,2.17,3.15,5.09,5.47,2.63,2.08,4.97,3.62,7.09,4.63,1.24.55,1.97.61,2.17.17.43-1.24-.12-3.33-1.62-6.28h0Zm-12.38-45.32c-.9.9-2.49,1.36-4.83,1.45-2.11.09-3.41-.09-3.96-.52-.29-.2.29-.64,1.71-1.3,1.45-.67,2.78-1.1,4.02-1.3,1.45-.2,2.46-.09,3.01.41.49.41.49.84.06,1.27h0Zm-43.96,32.62c-3.73,3.76-7.95,7-12.67,9.75-3.47,2-5.81,2.6-7,1.82l-.43-.49c-.38-2.75,1.71-5.58,6.22-8.5,1.42-.92,2.95-1.79,4.6-2.57,2.05-1.01,4.28-1.91,6.68-2.69,1.71-.52,3.56-.98,5.55-1.39l.67.09c-1.16,1.39-2.37,2.72-3.62,3.99h0Z"/>
  <path class="cls-1" d="m72.76,37.37c-1.1,1.71-1.5,3.36-1.19,4.95.29,1.5,1.13,2.69,2.55,3.53,1.36.84,3.47,1.13,6.39.9,3.73-.26,5.61-1.04,5.64-2.31.2-2.11-.61-4.42-2.43-6.88-1.97-2.63-4.08-3.85-6.36-3.59-1.76.23-3.3,1.36-4.6,3.41h0Z"/>
</svg>