<?xml version="1.0" encoding="UTF-8"?>
<svg id="Layer_1" data-name="Layer 1" xmlns="http://www.w3.org/2000/svg" viewBox="0 0 140.87 140.87">
  <defs>
    <style>
      .cls-1 {
        stroke-width: 0px;
      }
    </style>
  </defs>
  <path class="cls-1" d="m28.16,22.49l7.69,86.31,34.53,9.59,34.63-9.6,7.7-86.3H28.16Zm68.51,20.48l-.48,5.37-.21,2.38h-40.51l.97,10.84h35.72s2.85,0,2.85,0l-.26,2.84-2.49,27.87-.16,1.79-21.66,6h0s-.05.02-.05.02l-21.68-6.02-1.48-16.62h10.63l.75,8.44,11.79,3.18h0s11.81-3.19,11.81-3.19l1.23-13.73h-36.69l-2.6-29.17-.25-2.84h53.02l-.25,2.84Z"/>
</svg>