<?xml version="1.0" encoding="UTF-8"?>
<svg id="Layer_1" data-name="Layer 1" xmlns="http://www.w3.org/2000/svg" viewBox="0 0 140.87 140.87">
  <defs>
    <style>
      .cls-1 {
        stroke-width: 0px;
      }
    </style>
  </defs>
  <path class="cls-1" d="m67.02,46.95c-2.09-2.03-4.62-3.57-7.37-4.51-3.08-1.15-6.82-1.7-11.33-1.7-1.65,0-3.3,0-5,.06-1.7.05-3.3.05-4.78.11s-2.86.05-4.18.11c-1.26.06-2.14.06-3.08.06-.39,0-.55.22-.55.6v56.59c0,.49.22.71.66.71h10.67c.38-.05.66-.38.61-.77v-17.65c1.04,0,1.81,0,2.36.05.55.06,1.43.06,2.75.06,4.51,0,8.63-.49,12.37-1.87,3.57-1.32,6.65-3.63,8.85-6.71,2.2-3.08,3.3-6.98,3.3-11.71,0-2.47-.44-4.84-1.26-7.15-.88-2.36-2.25-4.51-4.01-6.27Zm-8.41,19.41c-1.21,1.37-2.75,2.42-4.51,2.91-2.03.66-4.18.99-6.32.99h-2.91c-.66,0-1.37-.05-2.14-.11v-18.48c.38-.05,1.15-.11,2.25-.05,1.05-.06,2.31-.06,3.74-.06,2.25-.05,4.45.27,6.49,1.1,1.59.6,2.91,1.7,3.85,3.13.88,1.48,1.32,3.19,1.26,4.89,0,2.42-.55,4.29-1.7,5.66Z"/>
  <path class="cls-1" d="m108.88,80.5c-1.05-1.87-2.53-3.41-4.34-4.56-2.64-1.65-5.5-3.02-8.47-4.01-1.32-.55-2.64-1.15-3.9-1.81-.72-.39-1.38-.88-1.87-1.48-.33-.44-.55-.93-.55-1.43s.17-1.04.44-1.48c.38-.55.99-.93,1.7-1.1,1.04-.27,2.2-.44,3.3-.39,2.09,0,4.12.27,6.16.71,1.87.39,3.63.99,5.28,1.87h0c.22.11.5.11.99,0,.17-.11.27-.33.27-.55v-8.96c0-.22-.06-.44-.11-.66-.11-.22-.33-.44-.55-.49-1.48-.6-3.08-1.04-4.73-1.26-2.25-.33-4.56-.49-6.82-.49-3.9,0-7.15.61-9.73,1.92-2.36,1.1-4.4,2.86-5.77,5.06-1.21,2.03-1.87,4.29-1.87,6.65-.05,1.92.38,3.85,1.26,5.61,1.04,1.87,2.47,3.46,4.18,4.67,2.42,1.65,5,2.97,7.81,3.96,2.69,1.04,4.51,1.87,5.39,2.58.88.71,1.32,1.43,1.32,2.2,0,.99-.61,1.92-1.49,2.31-.99.49-2.47.77-4.56.77-2.2,0-4.4-.27-6.49-.82-2.42-.55-4.67-1.43-6.82-2.69-.16-.11-.33-.16-.49-.05-.16.11-.22.33-.22.49v9.57c-.06.44.22.82.61,1.04,1.76.82,3.68,1.43,5.61,1.76,2.47.49,4.95.71,7.48.71,3.96,0,7.26-.61,9.95-1.76,2.47-.99,4.62-2.69,6.16-4.89,1.43-2.14,2.2-4.73,2.14-7.31.06-1.98-.39-3.9-1.26-5.66Z"/>
</svg>