<?xml version="1.0" encoding="UTF-8"?>
<svg id="Layer_1" data-name="Layer 1" xmlns="http://www.w3.org/2000/svg" viewBox="0 0 140.87 140.87">
  <defs>
    <style>
      .cls-1 {
        stroke-width: 0px;
      }
    </style>
  </defs>
  <path class="cls-1" d="m123.05,62.71c-2.89-19.94-17.07-36.69-36.32-42.9-3.39-1.1-7.01-1.86-11.05-2.31-1-.1-7.86-.22-8.72-.13-.23.02-.95.09-1.61.15-15.08,1.36-29.21,9.5-38.15,22-4.98,6.95-8.17,14.84-9.37,23.2-.43,2.92-.48,3.78-.48,7.73s.05,4.82.48,7.73c2.89,19.94,17.07,36.69,36.32,42.9,3.45,1.11,7.08,1.87,11.21,2.32,1.61.18,8.56.18,10.17,0,7.13-.79,13.17-2.55,19.13-5.59.91-.47,1.09-.59.97-.7-.08-.06-3.98-5.28-8.65-11.59l-8.49-11.47-10.64-15.74c-5.85-8.66-10.67-15.73-10.71-15.73-.04-.01-.08,6.99-.1,15.53-.03,14.96-.04,15.56-.23,15.91-.27.51-.48.72-.91.94-.33.17-.62.2-2.19.2h-1.8l-.48-.3c-.31-.2-.54-.46-.7-.76l-.22-.47.02-20.81.03-20.82.32-.4c.17-.22.52-.5.77-.63.43-.21.59-.23,2.39-.23,2.12,0,2.47.08,3.02.68.16.17,5.92,8.84,12.81,19.29,6.89,10.45,16.32,24.72,20.94,31.73l8.41,12.73.43-.28c3.77-2.45,7.75-5.94,10.91-9.57,6.72-7.71,11.04-17.11,12.5-27.14.43-2.92.48-3.78.48-7.73s-.05-4.82-.48-7.73Zm-33.22,7.04l-.03,18.66-3.29-5.04-3.3-5.04v-13.57c0-8.77.04-13.7.1-13.94.17-.58.53-1.04,1.03-1.31.43-.22.58-.24,2.21-.24,1.54,0,1.81.02,2.15.21.5.25.9.73,1.05,1.22.08.27.1,6.04.08,19.05Z"/>
</svg>