<?xml version="1.0" encoding="UTF-8"?>
<svg id="Layer_1" data-name="Layer 1" xmlns="http://www.w3.org/2000/svg" viewBox="0 0 140.87 140.87">
  <defs>
    <style>
      .cls-1 {
        stroke-width: 0px;
      }
    </style>
  </defs>
  <path class="cls-1" d="m82.8,100.96c-13.17,0-21.04-8.6-21.04-23.01-.03-6.79,2.3-12.88,6.56-17.16,4.11-4.13,9.69-6.31,16.14-6.31.77,0,1.33,0,1.96.03v-13.22c0-.81.59-1.39,1.39-1.39h8.62c1.03,0,1.39.67,1.39,1.29v49.75c0,1.47,0,3.3.25,5.26v.05s0,.05,0,.05c0,.89-.51,1.17-.93,1.39-4.49,2.14-9.44,3.25-14.35,3.25Zm1.33-36.63c-6.57,0-10.81,5.18-10.81,13.19,0,8.5,3.61,13.19,10.17,13.19,1.18,0,2.16-.12,2.93-.37v-25.74c-.59-.18-1.35-.27-2.29-.27Zm-39.8,35.81c-.95,0-1.55-.59-1.55-1.55v-57.15c0-.95.59-1.55,1.55-1.55h8.26c.94,0,1.5.56,1.5,1.5v58.05h-.19c-.23.46-.68.69-1.38.69h-8.19Z"/>
</svg>