<?xml version="1.0" encoding="UTF-8"?>
<svg id="Layer_1" data-name="Layer 1" xmlns="http://www.w3.org/2000/svg" viewBox="0 0 140.87 140.87">
  <defs>
    <style>
      .cls-1 {
        stroke-width: 0px;
      }
    </style>
  </defs>
  <path class="cls-1" d="m32.54,98.84v-56.59c0-.38.16-.6.55-.6.93,0,1.81,0,3.08-.05,1.32-.05,2.69-.05,4.18-.11s3.08-.05,4.78-.11,3.35-.05,5-.05c4.51,0,8.25.55,11.33,1.7,2.75.93,5.28,2.47,7.37,4.51,1.76,1.76,3.13,3.9,4.01,6.27.82,2.31,1.26,4.67,1.26,7.15,0,4.73-1.1,8.63-3.3,11.71s-5.28,5.39-8.85,6.71c-3.74,1.37-7.86,1.87-12.37,1.87-1.32,0-2.2,0-2.75-.06s-1.32-.06-2.36-.06v17.65c.05.38-.22.71-.6.77h-10.67c-.44,0-.66-.22-.66-.71h0Zm11.99-46.58v18.48c.77.05,1.48.11,2.14.11h2.91c2.14,0,4.29-.33,6.32-.99,1.76-.49,3.3-1.54,4.51-2.91,1.15-1.37,1.7-3.24,1.7-5.66.05-1.7-.38-3.41-1.26-4.89-.93-1.43-2.25-2.53-3.85-3.13-2.03-.82-4.23-1.15-6.49-1.1-1.43,0-2.69,0-3.74.05-1.1-.05-1.87,0-2.25.05h0Z"/>
  <path class="cls-1" d="m81.82,55.44h9.62c.55,0,.99.38,1.15.88.16.44.27.88.33,1.37.11.55.22,1.15.27,1.7.06.6.11,1.26.11,1.98,1.65-1.92,3.63-3.52,5.88-4.73,2.53-1.43,5.44-2.14,8.36-2.14.38-.05.71.22.77.6v10.94c0,.44-.27.6-.88.6-1.98-.05-4.01.11-5.94.55-1.59.33-3.13.82-4.62,1.48-1.04.49-2.03,1.15-2.8,2.03v28.05c0,.55-.22.77-.71.77h-10.83c-.44.06-.82-.22-.88-.66v-30.69c0-1.32,0-2.69-.06-4.12s-.06-2.86-.11-4.29c0-1.26-.11-2.47-.22-3.74-.06-.27.11-.55.38-.6,0-.05.11-.05.16,0h0Z"/>
</svg>