<?xml version="1.0" encoding="UTF-8"?>
<svg id="Layer_1" data-name="Layer 1" xmlns="http://www.w3.org/2000/svg" viewBox="0 0 17.54 17.4">
  <defs>
    <style>
      .cls-1 {
        stroke-width: 0px;
      }
    </style>
  </defs>
  <path class="cls-1" d="m14.17.37h3.37v16.66h-3.37v-2.13c-1.44,1.67-3.35,2.5-5.73,2.5-1.47,0-2.85-.38-4.15-1.13-1.3-.75-2.34-1.79-3.12-3.12-.78-1.32-1.17-2.8-1.17-4.45s.39-3.13,1.17-4.45c.78-1.32,1.82-2.36,3.12-3.12,1.3-.75,2.68-1.13,4.15-1.13,2.38,0,4.29.83,5.73,2.5V.37Zm-2.57,13.08c.82-.48,1.47-1.13,1.93-1.97.47-.83.7-1.76.7-2.78s-.23-1.95-.7-2.78-1.11-1.49-1.93-1.97c-.82-.48-1.73-.72-2.73-.72s-1.91.24-2.73.72c-.82.48-1.47,1.13-1.93,1.97-.47.83-.7,1.76-.7,2.78s.23,1.95.7,2.78c.47.83,1.11,1.49,1.93,1.97s1.73.72,2.73.72,1.91-.24,2.73-.72Z"/>
</svg>