<?xml version="1.0" encoding="UTF-8"?>
<svg id="Layer_1" data-name="Layer 1" xmlns="http://www.w3.org/2000/svg" viewBox="0 0 18.89 26.25">
  <defs>
    <style>
      .cls-1 {
        stroke-width: 0px;
      }
    </style>
  </defs>
  <path class="cls-1" d="m8.88,22.72v3.53c4.89,0,8.86-3.97,8.86-8.86h-3.53c0,2.94-2.39,5.33-5.33,5.33Z"/>
  <path class="cls-1" d="m18.89.37h-4.1v1.82c-.46-.4-.96-.77-1.52-1.07-1.36-.74-2.82-1.12-4.4-1.12s-3.04.37-4.4,1.12c-1.36.74-2.44,1.78-3.25,3.1s-1.22,2.82-1.22,4.48.41,3.16,1.22,4.48,1.89,2.35,3.25,3.1c1.35.74,2.82,1.12,4.4,1.12s3.04-.37,4.4-1.12c1.35-.74,2.44-1.78,3.25-3.1s1.22-2.82,1.22-4.48-.41-3.16-1.22-4.48c-.14-.23-.3-.44-.46-.65h2.83s0-3.2,0-3.2Zm-5.38,11.11c-.47.83-1.11,1.49-1.93,1.97s-1.72.72-2.7.72-1.91-.24-2.73-.72-1.47-1.13-1.93-1.97c-.47-.83-.7-1.76-.7-2.78s.23-1.95.7-2.78c.47-.83,1.11-1.49,1.93-1.97.82-.48,1.73-.72,2.73-.72s1.88.24,2.7.72c.82.48,1.47,1.13,1.93,1.97.47.83.7,1.76.7,2.78s-.23,1.95-.7,2.78Z"/>
</svg>