<?xml version="1.0" encoding="UTF-8"?>
<svg id="Layer_1" data-name="Layer 1" xmlns="http://www.w3.org/2000/svg" viewBox="0 0 15.26 17.02">
  <defs>
    <style>
      .cls-1 {
        stroke-width: 0px;
      }
    </style>
  </defs>
  <path class="cls-1" d="m11.97.94c1.03.63,1.84,1.5,2.42,2.6.58,1.1.87,2.33.87,3.68v9.8h-3.47V7.66c0-1.33-.36-2.4-1.08-3.22-.72-.81-1.7-1.22-2.95-1.22s-2.24.41-3.07,1.23-1.23,1.89-1.23,3.2v9.36H0V.36h3.37v1.97c.67-.75,1.43-1.33,2.3-1.73.87-.4,1.8-.6,2.8-.6,1.31,0,2.48.32,3.51.95h0Z"/>
</svg>