<?xml version="1.0" encoding="UTF-8"?>
<svg id="Layer_1" data-name="Layer 1" xmlns="http://www.w3.org/2000/svg" viewBox="0 0 17.74 17.4">
  <defs>
    <style>
      .cls-1 {
        stroke-width: 0px;
      }
    </style>
  </defs>
  <path class="cls-1" d="m4.47,16.28c-1.36-.74-2.44-1.78-3.25-3.1s-1.22-2.82-1.22-4.48.41-3.16,1.22-4.48c.81-1.32,1.89-2.35,3.25-3.1,1.35-.74,2.82-1.12,4.4-1.12s3.04.37,4.4,1.12c1.35.74,2.44,1.78,3.25,3.1s1.22,2.82,1.22,4.48-.41,3.16-1.22,4.48-1.89,2.35-3.25,3.1c-1.36.74-2.82,1.12-4.4,1.12s-3.04-.37-4.4-1.12Zm7.1-2.83c.82-.48,1.47-1.13,1.93-1.97.47-.83.7-1.76.7-2.78s-.23-1.95-.7-2.78c-.47-.83-1.11-1.49-1.93-1.97-.82-.48-1.72-.72-2.7-.72s-1.91.24-2.73.72c-.82.48-1.47,1.13-1.93,1.97-.47.83-.7,1.76-.7,2.78s.23,1.95.7,2.78c.47.83,1.11,1.49,1.93,1.97s1.73.72,2.73.72,1.88-.24,2.7-.72Z"/>
</svg>